<svg width="178" height="514" viewBox="0 0 178 514" fill="none" xmlns="http://www.w3.org/2000/svg">
<g clip-path="url(#clip0_7_320)">
<path d="M4.47 212.22C5.35408 212.22 6.21831 211.958 6.9534 211.467C7.68849 210.976 8.26142 210.277 8.59974 209.461C8.93807 208.644 9.02659 207.745 8.85411 206.878C8.68163 206.011 8.25591 205.214 7.63077 204.589C7.00563 203.964 6.20915 203.538 5.34205 203.366C4.47496 203.193 3.57619 203.282 2.75941 203.62C1.94262 203.959 1.2445 204.532 0.753331 205.267C0.262161 206.002 0 206.866 0 207.75C0 208.936 0.470945 210.073 1.30923 210.911C2.14752 211.749 3.28448 212.22 4.47 212.22V212.22Z" fill="white"/>
<path d="M4.47001 195.28C5.35452 195.28 6.21914 195.018 6.95445 194.526C7.68975 194.034 8.26267 193.336 8.6007 192.518C8.93873 191.701 9.02666 190.802 8.85338 189.934C8.68009 189.067 8.25337 188.27 7.62723 187.646C7.00108 187.021 6.20367 186.596 5.33592 186.425C4.46817 186.253 3.56909 186.343 2.75248 186.683C1.93587 187.023 1.23844 187.598 0.748476 188.334C0.258511 189.07 -0.00196757 189.936 1.11908e-05 190.82C0.00265948 192.004 0.474773 193.138 1.31277 193.974C2.15077 194.81 3.28622 195.28 4.47001 195.28V195.28Z" fill="white"/>
<path d="M4.47004 178.34C5.35327 178.34 6.2167 178.078 6.95135 177.588C7.686 177.098 8.25893 176.401 8.59784 175.585C8.93674 174.77 9.02642 173.872 8.85556 173.005C8.6847 172.139 8.26096 171.342 7.63781 170.716C7.01467 170.09 6.22007 169.663 5.35429 169.488C4.48852 169.314 3.59039 169.399 2.77326 169.735C1.95614 170.07 1.25664 170.64 0.763079 171.372C0.269513 172.105 0.00399655 172.967 4.47468e-05 173.85C-0.00258924 174.439 0.111087 175.022 0.334546 175.567C0.558005 176.111 0.886845 176.607 1.30219 177.024C1.71753 177.441 2.21118 177.772 2.75482 177.998C3.29845 178.224 3.88135 178.34 4.47004 178.34V178.34Z" fill="white"/>
<path d="M4.47001 161.4C5.35452 161.4 6.21914 161.138 6.95445 160.646C7.68975 160.154 8.26267 159.456 8.6007 158.638C8.93873 157.821 9.02666 156.922 8.85338 156.054C8.68009 155.187 8.25337 154.39 7.62723 153.766C7.00108 153.141 6.20367 152.716 5.33592 152.545C4.46817 152.373 3.56909 152.463 2.75248 152.803C1.93587 153.143 1.23844 153.718 0.748476 154.454C0.258511 155.19 -0.00196757 156.056 1.11908e-05 156.94C0.00265948 158.124 0.474773 159.258 1.31277 160.094C2.15077 160.93 3.28622 161.4 4.47001 161.4V161.4Z" fill="white"/>
<path d="M4.47004 144.46C5.35327 144.46 6.2167 144.198 6.95135 143.708C7.686 143.218 8.25893 142.521 8.59784 141.705C8.93674 140.89 9.02642 139.992 8.85556 139.125C8.6847 138.259 8.26096 137.462 7.63781 136.836C7.01467 136.21 6.22007 135.783 5.35429 135.608C4.48852 135.434 3.59039 135.519 2.77326 135.855C1.95614 136.19 1.25664 136.76 0.763079 137.492C0.269513 138.225 0.00399655 139.087 4.47468e-05 139.97C-0.00258924 140.559 0.111087 141.142 0.334546 141.687C0.558005 142.231 0.886845 142.727 1.30219 143.144C1.71753 143.561 2.21118 143.892 2.75482 144.118C3.29845 144.344 3.88135 144.46 4.47004 144.46V144.46Z" fill="white"/>
<path d="M4.47001 127.52C5.35452 127.52 6.21914 127.258 6.95445 126.766C7.68975 126.274 8.26267 125.576 8.6007 124.758C8.93873 123.941 9.02666 123.042 8.85338 122.174C8.68009 121.307 8.25337 120.51 7.62723 119.886C7.00108 119.261 6.20367 118.836 5.33592 118.665C4.46817 118.493 3.56909 118.583 2.75248 118.923C1.93587 119.263 1.23844 119.838 0.748476 120.574C0.258511 121.31 -0.00196757 122.176 1.11908e-05 123.06C0.00265948 124.244 0.474773 125.378 1.31277 126.214C2.15077 127.05 3.28622 127.52 4.47001 127.52V127.52Z" fill="white"/>
<path d="M4.47 110.58C5.35408 110.58 6.21831 110.318 6.9534 109.827C7.68849 109.336 8.26142 108.637 8.59974 107.821C8.93807 107.004 9.02659 106.105 8.85411 105.238C8.68163 104.371 8.25591 103.574 7.63077 102.949C7.00563 102.324 6.20915 101.898 5.34205 101.726C4.47496 101.553 3.57619 101.642 2.75941 101.98C1.94262 102.319 1.2445 102.892 0.753331 103.627C0.262161 104.362 0 105.226 0 106.11C0 107.296 0.470945 108.433 1.30923 109.271C2.14752 110.109 3.28448 110.58 4.47 110.58V110.58Z" fill="white"/>
<path d="M4.47 93.64C5.35408 93.64 6.21831 93.3779 6.9534 92.8867C7.68849 92.3955 8.26142 91.6974 8.59974 90.8806C8.93807 90.0638 9.02659 89.1651 8.85411 88.298C8.68163 87.4309 8.25591 86.6344 7.63077 86.0092C7.00563 85.3841 6.20915 84.9584 5.34205 84.7859C4.47496 84.6134 3.57619 84.702 2.75941 85.0403C1.94262 85.3786 1.2445 85.9515 0.753331 86.6866C0.262161 87.4217 0 88.2859 0 89.17C0 90.3555 0.470945 91.4925 1.30923 92.3308C2.14752 93.1691 3.28448 93.64 4.47 93.64V93.64Z" fill="white"/>
<path d="M4.47 76.7001C5.35237 76.7 6.21499 76.4389 6.94919 75.9494C7.68338 75.46 8.25631 74.7642 8.59577 73.9498C8.93524 73.1353 9.02607 72.2386 8.85681 71.3726C8.68755 70.5066 8.26578 69.7101 7.64463 69.0834C7.02349 68.4567 6.23075 68.0279 5.36631 67.8509C4.50187 67.6739 3.60439 67.7568 2.78694 68.089C1.96949 68.4212 1.26864 68.9879 0.772694 69.7177C0.276749 70.4475 0.00789183 71.3077 -4.11623e-06 72.1901C-0.00528725 72.7804 0.106433 73.366 0.328705 73.913C0.550977 74.4599 0.879397 74.9574 1.295 75.3767C1.71061 75.7961 2.20516 76.1289 2.75011 76.356C3.29506 76.5832 3.87961 76.7001 4.47 76.7001V76.7001Z" fill="white"/>
<path d="M4.47 59.76C5.35408 59.76 6.21831 59.4978 6.9534 59.0067C7.68849 58.5155 8.26142 57.8174 8.59974 57.0006C8.93807 56.1838 9.02659 55.285 8.85411 54.4179C8.68163 53.5508 8.25591 52.7544 7.63077 52.1292C7.00563 51.5041 6.20915 51.0784 5.34205 50.9059C4.47496 50.7334 3.57619 50.8219 2.75941 51.1602C1.94262 51.4986 1.2445 52.0715 0.753331 52.8066C0.262161 53.5417 0 54.4059 0 55.29C0 56.4755 0.470945 57.6125 1.30923 58.4508C2.14752 59.2891 3.28448 59.76 4.47 59.76V59.76Z" fill="white"/>
<path d="M4.47004 42.82C5.35498 42.82 6.21999 42.5573 6.95551 42.0652C7.69102 41.5732 8.26394 40.8739 8.60167 40.0559C8.93939 39.238 9.02674 38.3382 8.85264 37.4706C8.67853 36.6029 8.25082 35.8065 7.62367 35.1822C6.99653 34.5578 6.19818 34.1337 5.32977 33.9635C4.46137 33.7933 3.56198 33.8846 2.74555 34.226C1.92912 34.5674 1.23239 35.1435 0.743634 35.8812C0.254877 36.6189 -0.00391467 37.4851 4.47629e-05 38.37C0.00533362 39.552 0.478612 40.6839 1.31633 41.5179C2.15404 42.3518 3.28798 42.82 4.47004 42.82V42.82Z" fill="white"/>
<path d="M4.47 25.88C5.35408 25.88 6.21831 25.6178 6.9534 25.1266C7.68849 24.6355 8.26142 23.9374 8.59974 23.1206C8.93807 22.3038 9.02659 21.4051 8.85411 20.538C8.68163 19.6709 8.25591 18.8743 7.63077 18.2492C7.00563 17.6241 6.20915 17.1984 5.34205 17.0259C4.47496 16.8534 3.57619 16.9419 2.75941 17.2803C1.94262 17.6186 1.2445 18.1915 0.753331 18.9266C0.262161 19.6617 0 20.5259 0 21.41C0 22.5955 0.470945 23.7325 1.30923 24.5707C2.14752 25.409 3.28448 25.88 4.47 25.88V25.88Z" fill="white"/>
<path d="M4.47 8.94C5.35408 8.94 6.21831 8.67782 6.9534 8.18665C7.68849 7.69548 8.26142 6.99739 8.59974 6.1806C8.93807 5.36382 9.02659 4.46506 8.85411 3.59796C8.68163 2.73087 8.25591 1.93434 7.63077 1.3092C7.00563 0.684063 6.20915 0.258352 5.34205 0.0858765C4.47496 -0.0865995 3.57619 0.00194728 2.75941 0.340271C1.94262 0.678595 1.2445 1.25148 0.753331 1.98657C0.262161 2.72166 0 3.58589 0 4.46997C0.00264149 5.65468 0.474435 6.79015 1.31215 7.62787C2.14987 8.46558 3.28529 8.93736 4.47 8.94V8.94Z" fill="white"/>
<path d="M25.3802 212.22C26.2655 212.226 27.1327 211.969 27.8717 211.481C28.6107 210.994 29.1883 210.298 29.5313 209.482C29.8742 208.665 29.967 207.766 29.7979 206.897C29.6289 206.027 29.2055 205.228 28.5816 204.6C27.9576 203.972 27.1612 203.543 26.2933 203.368C25.4254 203.193 24.5251 203.28 23.7066 203.618C22.8881 203.955 22.1882 204.528 21.6956 205.264C21.2031 205.999 20.9402 206.865 20.9402 207.75C20.9402 208.93 21.407 210.063 22.2388 210.9C23.0706 211.738 24.1999 212.212 25.3802 212.22V212.22Z" fill="white"/>
<path d="M25.3802 195.28C26.266 195.286 27.1335 195.029 27.8728 194.541C28.612 194.053 29.1896 193.356 29.5322 192.539C29.8749 191.722 29.9671 190.822 29.7972 189.953C29.6273 189.084 29.203 188.284 28.578 187.656C27.9531 187.029 27.1558 186.601 26.2872 186.427C25.4186 186.253 24.518 186.341 23.6997 186.68C22.8813 187.019 22.1821 187.594 21.6908 188.331C21.1995 189.068 20.9382 189.934 20.9402 190.82C20.9402 191.999 21.4073 193.131 22.2394 193.967C23.0715 194.803 24.2008 195.275 25.3802 195.28V195.28Z" fill="white"/>
<path d="M25.3802 178.34C26.2647 178.346 27.131 178.089 27.8696 177.603C28.6082 177.116 29.1858 176.421 29.5293 175.606C29.8728 174.791 29.9667 173.892 29.7993 173.024C29.6318 172.155 29.2105 171.356 28.5885 170.727C27.9666 170.098 27.1721 169.668 26.3055 169.491C25.4389 169.314 24.5393 169.397 23.7204 169.732C22.9015 170.066 22.2003 170.636 21.7053 171.369C21.2104 172.102 20.9441 172.966 20.9402 173.85C20.9348 175.034 21.3993 176.171 22.2317 177.013C23.0641 177.855 24.1964 178.332 25.3802 178.34V178.34Z" fill="white"/>
<path d="M25.3802 161.4C26.266 161.406 27.1335 161.149 27.8728 160.661C28.612 160.173 29.1896 159.476 29.5322 158.659C29.8749 157.842 29.9671 156.942 29.7972 156.073C29.6273 155.204 29.203 154.404 28.578 153.776C27.9531 153.149 27.1558 152.721 26.2872 152.547C25.4186 152.373 24.518 152.461 23.6997 152.8C22.8813 153.139 22.1821 153.714 21.6908 154.451C21.1995 155.188 20.9382 156.054 20.9402 156.94C20.9402 158.119 21.4073 159.251 22.2394 160.087C23.0715 160.923 24.2008 161.395 25.3802 161.4V161.4Z" fill="white"/>
<path d="M25.3802 144.46C26.2647 144.466 27.131 144.209 27.8696 143.723C28.6082 143.236 29.1858 142.541 29.5293 141.726C29.8728 140.911 29.9667 140.012 29.7993 139.144C29.6318 138.275 29.2105 137.476 28.5885 136.847C27.9666 136.218 27.1721 135.788 26.3055 135.611C25.4389 135.434 24.5393 135.517 23.7204 135.852C22.9015 136.186 22.2003 136.756 21.7053 137.489C21.2104 138.222 20.9441 139.086 20.9402 139.97C20.9348 141.154 21.3993 142.291 22.2317 143.133C23.0641 143.975 24.1964 144.452 25.3802 144.46V144.46Z" fill="white"/>
<path d="M25.3802 127.52C26.266 127.526 27.1335 127.269 27.8728 126.781C28.612 126.293 29.1896 125.596 29.5322 124.779C29.8749 123.962 29.9671 123.062 29.7972 122.193C29.6273 121.323 29.203 120.524 28.578 119.896C27.9531 119.269 27.1558 118.841 26.2872 118.667C25.4186 118.493 24.518 118.581 23.6997 118.92C22.8813 119.259 22.1821 119.834 21.6908 120.571C21.1995 121.308 20.9382 122.174 20.9402 123.06C20.9402 124.239 21.4073 125.371 22.2394 126.207C23.0715 127.043 24.2008 127.515 25.3802 127.52Z" fill="white"/>
<path d="M25.3802 110.58C26.2655 110.586 27.1327 110.329 27.8717 109.841C28.6107 109.354 29.1883 108.658 29.5313 107.842C29.8742 107.025 29.967 106.126 29.7979 105.257C29.6289 104.387 29.2055 103.588 28.5816 102.96C27.9576 102.332 27.1612 101.903 26.2933 101.728C25.4254 101.553 24.5251 101.64 23.7066 101.977C22.8881 102.315 22.1882 102.888 21.6956 103.624C21.2031 104.359 20.9402 105.225 20.9402 106.11C20.9402 107.29 21.407 108.423 22.2388 109.26C23.0706 110.098 24.1999 110.572 25.3802 110.58V110.58Z" fill="white"/>
<path d="M25.3802 93.64C26.2655 93.646 27.1327 93.3889 27.8717 92.9013C28.6107 92.4138 29.1883 91.7178 29.5313 90.9015C29.8742 90.0853 29.967 89.1856 29.7979 88.3165C29.6289 87.4475 29.2055 86.6482 28.5816 86.02C27.9576 85.3919 27.1612 84.9632 26.2933 84.7883C25.4254 84.6133 24.5251 84.7001 23.7066 85.0375C22.8881 85.3749 22.1882 85.9478 21.6956 86.6836C21.2031 87.4193 20.9402 88.2847 20.9402 89.17C20.9402 90.3504 21.407 91.4828 22.2388 92.3202C23.0706 93.1577 24.1999 93.6321 25.3802 93.64V93.64Z" fill="white"/>
<path d="M25.3802 76.7001C26.2638 76.706 27.1294 76.4498 27.8675 75.964C28.6056 75.4782 29.1832 74.7846 29.5272 73.9707C29.8713 73.1568 29.9664 72.2591 29.8006 71.3912C29.6347 70.5233 29.2153 69.7239 28.5954 69.0942C27.9755 68.4645 27.1828 68.0327 26.3176 67.8533C25.4523 67.6739 24.5533 67.7549 23.7341 68.0862C22.9149 68.4175 22.2123 68.9842 21.715 69.7146C21.2178 70.4451 20.9481 71.3065 20.9402 72.1901C20.9349 72.7779 21.0456 73.3611 21.266 73.9061C21.4864 74.4511 21.8122 74.9472 22.2246 75.3661C22.637 75.7851 23.128 76.1185 23.6695 76.3474C24.211 76.5763 24.7923 76.6962 25.3802 76.7001V76.7001Z" fill="white"/>
<path d="M25.3802 59.76C26.2655 59.766 27.1327 59.5089 27.8717 59.0213C28.6107 58.5338 29.1883 57.8378 29.5313 57.0215C29.8742 56.2053 29.967 55.3056 29.7979 54.4365C29.6289 53.5675 29.2055 52.7682 28.5816 52.14C27.9576 51.5119 27.1612 51.0831 26.2933 50.9082C25.4254 50.7333 24.5251 50.8201 23.7066 51.1575C22.8881 51.4949 22.1882 52.0678 21.6956 52.8035C21.2031 53.5392 20.9402 54.4047 20.9402 55.29C20.9402 56.4704 21.407 57.6028 22.2388 58.4402C23.0706 59.2777 24.1999 59.7521 25.3802 59.76V59.76Z" fill="white"/>
<path d="M25.3802 42.82C26.2664 42.826 27.1344 42.5683 27.8738 42.0799C28.6133 41.5915 29.1909 40.8943 29.5332 40.0769C29.8755 39.2595 29.9672 38.3587 29.7965 37.4891C29.6258 36.6195 29.2004 35.8202 28.5745 35.1929C27.9486 34.5655 27.1503 34.1384 26.2811 33.9658C25.4118 33.7931 24.5109 33.8827 23.6927 34.2232C22.8745 34.5637 22.176 35.1397 21.6859 35.8781C21.1958 36.6165 20.9363 37.4838 20.9402 38.37C20.9455 39.5469 21.4146 40.6742 22.2459 41.5073C23.0771 42.3404 24.2034 42.8121 25.3802 42.82V42.82Z" fill="white"/>
<path d="M25.3802 25.88C26.2655 25.886 27.1327 25.6289 27.8717 25.1413C28.6107 24.6538 29.1883 23.9577 29.5313 23.1415C29.8742 22.3253 29.967 21.4255 29.7979 20.5565C29.6289 19.6874 29.2055 18.8882 28.5816 18.26C27.9576 17.6319 27.1612 17.2031 26.2933 17.0282C25.4254 16.8533 24.5251 16.9401 23.7066 17.2775C22.8881 17.6149 22.1882 18.1878 21.6956 18.9235C21.2031 19.6593 20.9402 20.5246 20.9402 21.41C20.9402 22.5903 21.407 23.7228 22.2388 24.5602C23.0706 25.3976 24.1999 25.8721 25.3802 25.88V25.88Z" fill="white"/>
<path d="M25.3802 8.94002C26.2655 8.94597 27.1327 8.68886 27.8717 8.20132C28.6107 7.71377 29.1883 7.01774 29.5313 6.2015C29.8742 5.38525 29.967 4.48554 29.7979 3.61648C29.6289 2.74741 29.2055 1.94817 28.5816 1.32003C27.9576 0.691883 27.1612 0.263138 26.2933 0.0882168C25.4254 -0.0867047 24.5251 6.01113e-05 23.7066 0.337484C22.8881 0.674909 22.1882 1.24782 21.6956 1.98354C21.2031 2.71927 20.9402 3.58464 20.9402 4.46999C20.9402 5.65033 21.407 6.78277 22.2388 7.6202C23.0706 8.45763 24.1999 8.9321 25.3802 8.94002V8.94002Z" fill="white"/>
<path d="M46.3402 212.22C47.2248 212.222 48.09 211.962 48.8264 211.472C49.5628 210.982 50.1373 210.284 50.4771 209.468C50.817 208.651 50.9069 207.752 50.7356 206.884C50.5642 206.016 50.1393 205.219 49.5145 204.593C48.8898 203.967 48.0933 203.54 47.226 203.367C46.3586 203.193 45.4593 203.281 44.642 203.619C43.8246 203.957 43.1259 204.53 42.6343 205.266C42.1427 206.001 41.8803 206.866 41.8802 207.75C41.8802 208.934 42.3498 210.069 43.1859 210.907C44.0221 211.745 45.1565 212.217 46.3402 212.22Z" fill="white"/>
<path d="M46.3403 195.28C47.2252 195.282 48.0908 195.021 48.8274 194.531C49.564 194.04 50.1385 193.342 50.4781 192.525C50.8176 191.708 50.907 190.808 50.7348 189.94C50.5627 189.072 50.1368 188.275 49.511 187.649C48.8853 187.024 48.0879 186.598 47.2199 186.425C46.3518 186.253 45.4522 186.343 44.635 186.682C43.8178 187.022 43.1198 187.596 42.6294 188.333C42.139 189.07 41.8783 189.935 41.8803 190.82C41.8829 192.002 42.3536 193.135 43.1895 193.971C44.0253 194.807 45.1582 195.277 46.3403 195.28V195.28Z" fill="white"/>
<path d="M46.3402 178.34C47.2239 178.342 48.0883 178.082 48.8243 177.593C49.5602 177.104 50.1347 176.408 50.4751 175.592C50.8156 174.777 50.9067 173.879 50.737 173.011C50.5672 172.144 50.1443 171.347 49.5215 170.72C48.8988 170.093 48.1042 169.665 47.2382 169.489C46.3721 169.314 45.4735 169.399 44.6558 169.734C43.8381 170.069 43.138 170.638 42.644 171.371C42.15 172.104 41.8842 172.966 41.8802 173.85C41.8776 174.438 41.9909 175.02 42.2138 175.564C42.4366 176.108 42.7646 176.603 43.1788 177.02C43.5931 177.437 44.0856 177.769 44.6281 177.995C45.1706 178.221 45.7524 178.339 46.3402 178.34V178.34Z" fill="white"/>
<path d="M46.3403 161.4C47.2252 161.402 48.0908 161.141 48.8274 160.651C49.564 160.16 50.1385 159.462 50.4781 158.645C50.8176 157.828 50.907 156.928 50.7348 156.06C50.5627 155.192 50.1368 154.395 49.511 153.769C48.8853 153.144 48.0879 152.718 47.2199 152.545C46.3518 152.373 45.4522 152.463 44.635 152.802C43.8178 153.142 43.1198 153.716 42.6294 154.453C42.139 155.19 41.8783 156.055 41.8803 156.94C41.8829 158.122 42.3536 159.255 43.1895 160.091C44.0253 160.927 45.1582 161.397 46.3403 161.4V161.4Z" fill="white"/>
<path d="M46.3402 144.46C47.2248 144.462 48.09 144.202 48.8264 143.712C49.5628 143.222 50.1373 142.524 50.4771 141.708C50.817 140.891 50.9069 139.992 50.7356 139.124C50.5642 138.256 50.1393 137.459 49.5145 136.833C48.8898 136.207 48.0933 135.78 47.226 135.607C46.3586 135.433 45.4593 135.521 44.642 135.859C43.8246 136.197 43.1259 136.77 42.6343 137.506C42.1427 138.241 41.8803 139.106 41.8802 139.99C41.8802 141.174 42.3498 142.309 43.1859 143.147C44.0221 143.985 45.1565 144.457 46.3402 144.46V144.46Z" fill="white"/>
<path d="M46.3403 127.52C47.2252 127.522 48.0908 127.261 48.8274 126.771C49.564 126.28 50.1385 125.582 50.4781 124.765C50.8176 123.948 50.907 123.048 50.7348 122.18C50.5627 121.312 50.1368 120.515 49.511 119.889C48.8853 119.264 48.0879 118.838 47.2199 118.665C46.3518 118.493 45.4522 118.583 44.635 118.922C43.8178 119.262 43.1198 119.836 42.6294 120.573C42.139 121.309 41.8783 122.175 41.8803 123.06C41.8829 124.242 42.3536 125.375 43.1895 126.211C44.0253 127.047 45.1582 127.517 46.3403 127.52V127.52Z" fill="white"/>
<path d="M46.3402 110.58C47.2248 110.582 48.09 110.322 48.8264 109.832C49.5628 109.342 50.1373 108.644 50.4771 107.828C50.817 107.011 50.9069 106.112 50.7356 105.244C50.5642 104.376 50.1393 103.579 49.5145 102.953C48.8898 102.327 48.0933 101.9 47.226 101.727C46.3586 101.553 45.4593 101.641 44.642 101.979C43.8246 102.317 43.1259 102.89 42.6343 103.626C42.1427 104.361 41.8803 105.226 41.8802 106.11C41.8802 107.294 42.3498 108.429 43.1859 109.267C44.0221 110.105 45.1565 110.577 46.3402 110.58V110.58Z" fill="white"/>
<path d="M46.3402 93.64C47.2248 93.642 48.09 93.3816 48.8264 92.8916C49.5628 92.4016 50.1373 91.7042 50.4771 90.8876C50.817 90.071 50.9069 89.1719 50.7356 88.3041C50.5642 87.4364 50.1393 86.639 49.5145 86.0128C48.8898 85.3867 48.0933 84.96 47.226 84.7867C46.3586 84.6134 45.4593 84.7013 44.642 85.0394C43.8246 85.3774 43.1259 85.9503 42.6343 86.6856C42.1427 87.4209 41.8803 88.2855 41.8802 89.17C41.8802 90.3538 42.3498 91.4893 43.1859 92.3273C44.0221 93.1653 45.1565 93.6374 46.3402 93.64Z" fill="white"/>
<path d="M46.3402 76.7001C47.2248 76.702 48.09 76.4416 48.8264 75.9516C49.5628 75.4616 50.1373 74.7642 50.4771 73.9476C50.817 73.131 50.9069 72.2319 50.7356 71.3642C50.5642 70.4964 50.1393 69.699 49.5145 69.0728C48.8898 68.4467 48.0933 68.02 47.226 67.8467C46.3586 67.6734 45.4593 67.7614 44.642 68.0994C43.8246 68.4374 43.1259 69.0103 42.6343 69.7456C42.1427 70.4809 41.8803 71.3456 41.8802 72.2301C41.8802 73.4138 42.3498 74.5493 43.1859 75.3873C44.0221 76.2253 45.1565 76.6974 46.3402 76.7001V76.7001Z" fill="white"/>
<path d="M46.3402 59.76C47.2248 59.762 48.09 59.5015 48.8264 59.0115C49.5628 58.5216 50.1373 57.8241 50.4771 57.0075C50.817 56.1909 50.9069 55.2918 50.7356 54.4241C50.5642 53.5563 50.1393 52.7589 49.5145 52.1328C48.8898 51.5066 48.0933 51.0799 47.226 50.9066C46.3586 50.7333 45.4593 50.8213 44.642 51.1593C43.8246 51.4973 43.1259 52.0703 42.6343 52.8056C42.1427 53.5409 41.8803 54.4055 41.8802 55.29C41.8802 56.4738 42.3498 57.6092 43.1859 58.4472C44.0221 59.2852 45.1565 59.7574 46.3402 59.76Z" fill="white"/>
<path d="M46.3403 42.8201C47.2256 42.822 48.0916 42.561 48.8285 42.0702C49.5653 41.5793 50.1398 40.8807 50.479 40.0629C50.8183 39.2452 50.9071 38.3451 50.7341 37.4768C50.5611 36.6085 50.1342 35.8111 49.5075 35.1857C48.8807 34.5604 48.0824 34.1353 47.2137 33.9643C46.345 33.7932 45.4451 33.884 44.6281 34.2251C43.8111 34.5662 43.1138 35.1422 42.6246 35.8802C42.1354 36.6181 41.8763 37.4847 41.8803 38.37C41.8856 39.5504 42.3575 40.6807 43.193 41.5144C44.0286 42.348 45.16 42.8174 46.3403 42.8201V42.8201Z" fill="white"/>
<path d="M46.3402 25.88C47.2248 25.882 48.09 25.6215 48.8264 25.1315C49.5628 24.6416 50.1373 23.9442 50.4771 23.1276C50.817 22.3109 50.9069 21.4118 50.7356 20.5441C50.5642 19.6763 50.1393 18.8789 49.5145 18.2528C48.8898 17.6267 48.0933 17.1999 47.226 17.0266C46.3586 16.8533 45.4593 16.9413 44.642 17.2793C43.8246 17.6173 43.1259 18.1902 42.6343 18.9255C42.1427 19.6608 41.8803 20.5255 41.8802 21.41C41.8802 22.5937 42.3498 23.7292 43.1859 24.5672C44.0221 25.4053 45.1565 25.8773 46.3402 25.88Z" fill="white"/>
<path d="M46.3402 8.93999C47.2248 8.94197 48.09 8.68148 48.8264 8.19152C49.5628 7.70155 50.1373 7.00416 50.4771 6.18755C50.817 5.37094 50.9069 4.47181 50.7356 3.60405C50.5642 2.7363 50.1393 1.93894 49.5145 1.31279C48.8898 0.686653 48.0933 0.259885 47.226 0.0865974C46.3586 -0.0866906 45.4593 0.00125512 44.642 0.339283C43.8246 0.677311 43.1259 1.25022 42.6343 1.98552C42.1427 2.72083 41.8803 3.58545 41.8802 4.46996C41.8802 5.65375 42.3498 6.78925 43.1859 7.62725C44.0221 8.46525 45.1565 8.93734 46.3402 8.93999Z" fill="white"/>
<path d="M67.2903 212.22C68.1744 212.22 69.0386 211.958 69.7737 211.467C70.5088 210.976 71.0817 210.277 71.4201 209.461C71.7584 208.644 71.8469 207.745 71.6744 206.878C71.5019 206.011 71.0762 205.214 70.4511 204.589C69.8259 203.964 69.0295 203.538 68.1624 203.366C67.2953 203.193 66.3965 203.282 65.5797 203.62C64.7629 203.959 64.0648 204.532 63.5736 205.267C63.0825 206.002 62.8203 206.866 62.8203 207.75C62.8203 208.936 63.2913 210.073 64.1295 210.911C64.9678 211.749 66.1048 212.22 67.2903 212.22V212.22Z" fill="#CCCCCC"/>
<path d="M67.2903 195.28C68.1748 195.28 69.0395 195.018 69.7748 194.526C70.5101 194.034 71.083 193.336 71.421 192.518C71.759 191.701 71.847 190.802 71.6737 189.934C71.5004 189.067 71.0737 188.27 70.4475 187.646C69.8214 187.021 69.024 186.596 68.1562 186.425C67.2885 186.253 66.3894 186.343 65.5728 186.683C64.7562 187.023 64.0588 187.598 63.5688 188.334C63.0788 189.07 62.8183 189.936 62.8203 190.82C62.823 192.004 63.2951 193.138 64.1331 193.974C64.9711 194.81 66.1065 195.28 67.2903 195.28V195.28Z" fill="#CCCCCC"/>
<path d="M67.2903 178.34C68.1735 178.34 69.0369 178.078 69.7716 177.588C70.5062 177.098 71.0792 176.401 71.4181 175.585C71.757 174.77 71.8467 173.872 71.6758 173.005C71.505 172.139 71.0812 171.342 70.4581 170.716C69.8349 170.09 69.0403 169.663 68.1745 169.488C67.3088 169.314 66.4106 169.399 65.5935 169.735C64.7764 170.07 64.0769 170.64 63.5833 171.372C63.0898 172.105 62.8242 172.967 62.8203 173.85C62.8177 174.439 62.9313 175.022 63.1548 175.567C63.3783 176.111 63.7071 176.607 64.1224 177.024C64.5378 177.441 65.0314 177.772 65.5751 177.998C66.1187 178.224 66.7016 178.34 67.2903 178.34V178.34Z" fill="#CCCCCC"/>
<path d="M67.2903 161.4C68.1748 161.4 69.0395 161.138 69.7748 160.646C70.5101 160.154 71.083 159.456 71.421 158.638C71.759 157.821 71.847 156.922 71.6737 156.054C71.5004 155.187 71.0737 154.39 70.4475 153.766C69.8214 153.141 69.024 152.716 68.1562 152.545C67.2885 152.373 66.3894 152.463 65.5728 152.803C64.7562 153.143 64.0588 153.718 63.5688 154.454C63.0788 155.19 62.8183 156.056 62.8203 156.94C62.823 158.124 63.2951 159.258 64.1331 160.094C64.9711 160.93 66.1065 161.4 67.2903 161.4V161.4Z" fill="#CCCCCC"/>
<path d="M67.2903 144.46C68.1744 144.46 69.0386 144.198 69.7737 143.707C70.5088 143.216 71.0817 142.517 71.4201 141.701C71.7584 140.884 71.8469 139.985 71.6744 139.118C71.5019 138.251 71.0762 137.454 70.4511 136.829C69.8259 136.204 69.0295 135.778 68.1624 135.606C67.2953 135.433 66.3965 135.522 65.5797 135.86C64.7629 136.199 64.0648 136.772 63.5736 137.507C63.0825 138.242 62.8203 139.106 62.8203 139.99C62.8203 141.176 63.2913 142.312 64.1295 143.151C64.9678 143.989 66.1048 144.46 67.2903 144.46V144.46Z" fill="#CCCCCC"/>
<path d="M67.2903 127.52C68.1748 127.52 69.0395 127.258 69.7748 126.766C70.5101 126.274 71.083 125.576 71.421 124.758C71.759 123.941 71.847 123.042 71.6737 122.174C71.5004 121.307 71.0737 120.51 70.4475 119.886C69.8214 119.261 69.024 118.836 68.1562 118.665C67.2885 118.493 66.3894 118.583 65.5728 118.923C64.7562 119.263 64.0588 119.837 63.5688 120.574C63.0788 121.31 62.8183 122.176 62.8203 123.06C62.823 124.244 63.2951 125.378 64.1331 126.214C64.9711 127.05 66.1065 127.52 67.2903 127.52V127.52Z" fill="#CCCCCC"/>
<path d="M67.2903 110.58C68.1744 110.58 69.0386 110.318 69.7737 109.827C70.5088 109.336 71.0817 108.637 71.4201 107.821C71.7584 107.004 71.8469 106.105 71.6744 105.238C71.5019 104.371 71.0762 103.574 70.4511 102.949C69.8259 102.324 69.0295 101.898 68.1624 101.726C67.2953 101.553 66.3965 101.642 65.5797 101.98C64.7629 102.319 64.0648 102.892 63.5736 103.627C63.0825 104.362 62.8203 105.226 62.8203 106.11C62.8203 107.296 63.2913 108.432 64.1295 109.271C64.9678 110.109 66.1048 110.58 67.2903 110.58V110.58Z" fill="#CCCCCC"/>
<path d="M67.2903 93.64C68.1744 93.64 69.0386 93.3779 69.7737 92.8867C70.5088 92.3955 71.0817 91.6974 71.4201 90.8806C71.7584 90.0638 71.8469 89.1651 71.6744 88.298C71.5019 87.4309 71.0762 86.6344 70.4511 86.0092C69.8259 85.3841 69.0295 84.9584 68.1624 84.7859C67.2953 84.6134 66.3965 84.702 65.5797 85.0403C64.7629 85.3786 64.0648 85.9515 63.5736 86.6866C63.0825 87.4217 62.8203 88.2859 62.8203 89.17C62.8203 90.3555 63.2913 91.4925 64.1295 92.3308C64.9678 93.1691 66.1048 93.64 67.2903 93.64V93.64Z" fill="#CCCCCC"/>
<path d="M67.2903 76.7C68.1744 76.7 69.0386 76.4379 69.7737 75.9467C70.5088 75.4555 71.0817 74.7574 71.4201 73.9406C71.7584 73.1238 71.8469 72.2251 71.6744 71.358C71.5019 70.4909 71.0762 69.6944 70.4511 69.0692C69.8259 68.4441 69.0295 68.0184 68.1624 67.8459C67.2953 67.6734 66.3965 67.762 65.5797 68.1003C64.7629 68.4386 64.0648 69.0115 63.5736 69.7466C63.0825 70.4817 62.8203 71.3459 62.8203 72.23C62.8203 72.817 62.9359 73.3983 63.1606 73.9406C63.3852 74.4829 63.7145 74.9757 64.1295 75.3908C64.5446 75.8059 65.0374 76.1351 65.5797 76.3597C66.122 76.5844 66.7033 76.7 67.2903 76.7V76.7Z" fill="#CCCCCC"/>
<path d="M67.2903 59.76C68.1744 59.76 69.0386 59.4978 69.7737 59.0067C70.5088 58.5155 71.0817 57.8174 71.4201 57.0006C71.7584 56.1838 71.8469 55.285 71.6744 54.4179C71.5019 53.5508 71.0762 52.7544 70.4511 52.1292C69.8259 51.5041 69.0295 51.0784 68.1624 50.9059C67.2953 50.7334 66.3965 50.8219 65.5797 51.1602C64.7629 51.4986 64.0648 52.0715 63.5736 52.8066C63.0825 53.5417 62.8203 54.4059 62.8203 55.29C62.8203 56.4755 63.2913 57.6125 64.1295 58.4508C64.9678 59.2891 66.1048 59.76 67.2903 59.76V59.76Z" fill="#CCCCCC"/>
<path d="M67.2903 42.82C68.1752 42.82 69.0402 42.5573 69.7758 42.0652C70.5113 41.5732 71.0842 40.8739 71.4219 40.0559C71.7596 39.238 71.847 38.3382 71.6729 37.4706C71.4988 36.6029 71.0711 35.8065 70.4439 35.1822C69.8168 34.5578 69.0184 34.1337 68.15 33.9635C67.2816 33.7933 66.3822 33.8846 65.5658 34.226C64.7494 34.5674 64.0526 35.1435 63.5639 35.8812C63.0751 36.6189 62.8163 37.4851 62.8203 38.37C62.8256 39.552 63.2989 40.6839 64.1366 41.5179C64.9743 42.3518 66.1082 42.82 67.2903 42.82V42.82Z" fill="#CCCCCC"/>
<path d="M67.2903 25.88C68.1744 25.88 69.0386 25.6178 69.7737 25.1266C70.5088 24.6355 71.0817 23.9374 71.4201 23.1206C71.7584 22.3038 71.8469 21.4051 71.6744 20.538C71.5019 19.6709 71.0762 18.8743 70.4511 18.2492C69.8259 17.6241 69.0295 17.1984 68.1624 17.0259C67.2953 16.8534 66.3965 16.9419 65.5797 17.2803C64.7629 17.6186 64.0648 18.1915 63.5736 18.9266C63.0825 19.6617 62.8203 20.5259 62.8203 21.41C62.8203 22.5955 63.2913 23.7325 64.1295 24.5707C64.9678 25.409 66.1048 25.88 67.2903 25.88V25.88Z" fill="#CCCCCC"/>
<path d="M67.2903 8.94C68.1744 8.94 69.0386 8.67782 69.7737 8.18665C70.5088 7.69548 71.0817 6.99739 71.4201 6.1806C71.7584 5.36382 71.8469 4.46506 71.6744 3.59796C71.5019 2.73087 71.0762 1.93434 70.4511 1.3092C69.8259 0.684063 69.0295 0.258352 68.1624 0.0858765C67.2953 -0.0865995 66.3965 0.00194728 65.5797 0.340271C64.7629 0.678595 64.0648 1.25148 63.5736 1.98657C63.0825 2.72166 62.8203 3.58589 62.8203 4.46997C62.8203 5.65549 63.2913 6.79245 64.1295 7.63074C64.9678 8.46902 66.1048 8.94 67.2903 8.94V8.94Z" fill="#CCCCCC"/>
<path d="M88.2303 212.22C89.1144 212.22 89.9786 211.958 90.7137 211.467C91.4488 210.976 92.0217 210.277 92.3601 209.461C92.6984 208.644 92.7869 207.745 92.6144 206.878C92.4419 206.011 92.0162 205.214 91.3911 204.589C90.7659 203.964 89.9695 203.538 89.1024 203.366C88.2353 203.193 87.3365 203.282 86.5197 203.62C85.7029 203.959 85.0048 204.532 84.5137 205.267C84.0225 206.002 83.7603 206.866 83.7603 207.75C83.7603 208.936 84.2313 210.073 85.0695 210.911C85.9078 211.749 87.0448 212.22 88.2303 212.22V212.22Z" fill="#CCCCCC"/>
<path d="M88.2303 195.28C89.1148 195.28 89.9795 195.018 90.7148 194.526C91.4501 194.034 92.023 193.336 92.361 192.518C92.699 191.701 92.787 190.802 92.6137 189.934C92.4404 189.067 92.0137 188.27 91.3875 187.646C90.7614 187.021 89.964 186.596 89.0962 186.425C88.2285 186.253 87.3294 186.343 86.5128 186.683C85.6962 187.023 84.9988 187.598 84.5088 188.334C84.0188 189.07 83.7583 189.936 83.7603 190.82C83.763 192.004 84.2351 193.138 85.0731 193.974C85.9111 194.81 87.0465 195.28 88.2303 195.28V195.28Z" fill="#CCCCCC"/>
<path d="M88.2303 178.34C89.1144 178.34 89.9786 178.078 90.7137 177.587C91.4488 177.096 92.0217 176.397 92.3601 175.581C92.6984 174.764 92.7869 173.865 92.6144 172.998C92.4419 172.131 92.0162 171.334 91.3911 170.709C90.7659 170.084 89.9695 169.658 89.1024 169.486C88.2353 169.313 87.3365 169.402 86.5197 169.74C85.7029 170.079 85.0048 170.652 84.5137 171.387C84.0225 172.122 83.7603 172.986 83.7603 173.87C83.7603 175.056 84.2313 176.193 85.0695 177.031C85.9078 177.869 87.0448 178.34 88.2303 178.34V178.34Z" fill="#CCCCCC"/>
<path d="M92.7003 156.93C92.7003 154.461 90.699 152.46 88.2303 152.46C85.7616 152.46 83.7603 154.461 83.7603 156.93C83.7603 159.399 85.7616 161.4 88.2303 161.4C90.699 161.4 92.7003 159.399 92.7003 156.93Z" fill="#CCCCCC"/>
<path d="M92.7003 139.99C92.7003 137.521 90.699 135.52 88.2303 135.52C85.7616 135.52 83.7603 137.521 83.7603 139.99C83.7603 142.459 85.7616 144.46 88.2303 144.46C90.699 144.46 92.7003 142.459 92.7003 139.99Z" fill="#CCCCCC"/>
<path d="M92.7003 123.05C92.7003 120.581 90.699 118.58 88.2303 118.58C85.7616 118.58 83.7603 120.581 83.7603 123.05C83.7603 125.519 85.7616 127.52 88.2303 127.52C90.699 127.52 92.7003 125.519 92.7003 123.05Z" fill="#CCCCCC"/>
<path d="M88.2303 110.58C89.1144 110.58 89.9786 110.318 90.7137 109.827C91.4488 109.336 92.0217 108.637 92.3601 107.821C92.6984 107.004 92.7869 106.105 92.6144 105.238C92.4419 104.371 92.0162 103.574 91.3911 102.949C90.7659 102.324 89.9695 101.898 89.1024 101.726C88.2353 101.553 87.3365 101.642 86.5197 101.98C85.7029 102.319 85.0048 102.892 84.5137 103.627C84.0225 104.362 83.7603 105.226 83.7603 106.11C83.7603 107.296 84.2313 108.433 85.0695 109.271C85.9078 110.109 87.0448 110.58 88.2303 110.58V110.58Z" fill="#CCCCCC"/>
<path d="M88.2303 93.64C89.1144 93.64 89.9786 93.3779 90.7137 92.8867C91.4488 92.3955 92.0217 91.6974 92.3601 90.8806C92.6984 90.0638 92.7869 89.1651 92.6144 88.298C92.4419 87.4309 92.0162 86.6344 91.3911 86.0092C90.7659 85.3841 89.9695 84.9584 89.1024 84.7859C88.2353 84.6134 87.3365 84.702 86.5197 85.0403C85.7029 85.3786 85.0048 85.9515 84.5137 86.6866C84.0225 87.4217 83.7603 88.2859 83.7603 89.17C83.7603 90.3555 84.2313 91.4925 85.0695 92.3308C85.9078 93.1691 87.0448 93.64 88.2303 93.64V93.64Z" fill="#CCCCCC"/>
<path d="M88.2303 76.7001C89.1144 76.7001 89.9786 76.4379 90.7137 75.9467C91.4488 75.4556 92.0217 74.7575 92.3601 73.9407C92.6984 73.1239 92.7869 72.2251 92.6144 71.358C92.4419 70.4909 92.0162 69.6944 91.3911 69.0693C90.7659 68.4442 89.9695 68.0185 89.1024 67.846C88.2353 67.6735 87.3365 67.762 86.5197 68.1003C85.7029 68.4387 85.0048 69.0116 84.5137 69.7467C84.0225 70.4818 83.7603 71.346 83.7603 72.2301C83.7603 72.8171 83.8759 73.3983 84.1006 73.9407C84.3252 74.483 84.6545 74.9758 85.0695 75.3908C85.4846 75.8059 85.9774 76.1352 86.5197 76.3598C87.0621 76.5844 87.6433 76.7001 88.2303 76.7001V76.7001Z" fill="#CCCCCC"/>
<path d="M88.2303 59.7601C89.1144 59.7601 89.9786 59.4979 90.7137 59.0067C91.4488 58.5155 92.0217 57.8174 92.3601 57.0006C92.6984 56.1839 92.7869 55.2851 92.6144 54.418C92.4419 53.5509 92.0162 52.7544 91.3911 52.1293C90.7659 51.5042 89.9695 51.0784 89.1024 50.9059C88.2353 50.7335 87.3365 50.822 86.5197 51.1603C85.7029 51.4986 85.0048 52.0716 84.5137 52.8067C84.0225 53.5418 83.7603 54.406 83.7603 55.2901C83.7603 56.4756 84.2313 57.6125 85.0695 58.4508C85.9078 59.2891 87.0448 59.7601 88.2303 59.7601V59.7601Z" fill="#CCCCCC"/>
<path d="M88.2303 42.8201C89.1144 42.8201 89.9786 42.5579 90.7137 42.0667C91.4488 41.5755 92.0217 40.8774 92.3601 40.0606C92.6984 39.2439 92.7869 38.3451 92.6144 37.478C92.4419 36.6109 92.0162 35.8144 91.3911 35.1893C90.7659 34.5642 89.9695 34.1384 89.1024 33.9659C88.2353 33.7935 87.3365 33.882 86.5197 34.2203C85.7029 34.5586 85.0048 35.1316 84.5137 35.8667C84.0225 36.6018 83.7603 37.466 83.7603 38.3501C83.7603 38.9371 83.8759 39.5183 84.1006 40.0606C84.3252 40.603 84.6545 41.0958 85.0695 41.5108C85.4846 41.9259 85.9774 42.2552 86.5197 42.4798C87.0621 42.7044 87.6433 42.8201 88.2303 42.8201V42.8201Z" fill="#CCCCCC"/>
<path d="M88.2303 25.88C89.1144 25.88 89.9786 25.6178 90.7137 25.1266C91.4488 24.6355 92.0217 23.9374 92.3601 23.1206C92.6984 22.3038 92.7869 21.4051 92.6144 20.538C92.4419 19.6709 92.0162 18.8743 91.3911 18.2492C90.7659 17.6241 89.9695 17.1984 89.1024 17.0259C88.2353 16.8534 87.3365 16.9419 86.5197 17.2803C85.7029 17.6186 85.0048 18.1915 84.5137 18.9266C84.0225 19.6617 83.7603 20.5259 83.7603 21.41C83.7603 22.5955 84.2313 23.7325 85.0695 24.5707C85.9078 25.409 87.0448 25.88 88.2303 25.88V25.88Z" fill="#CCCCCC"/>
<path d="M88.2303 8.94C89.1144 8.94 89.9786 8.67782 90.7137 8.18665C91.4488 7.69548 92.0217 6.99739 92.3601 6.1806C92.6984 5.36382 92.7869 4.46506 92.6144 3.59796C92.4419 2.73087 92.0162 1.93434 91.3911 1.3092C90.7659 0.684063 89.9695 0.258352 89.1024 0.0858765C88.2353 -0.0865995 87.3365 0.00194728 86.5197 0.340271C85.7029 0.678595 85.0048 1.25148 84.5137 1.98657C84.0225 2.72166 83.7603 3.58589 83.7603 4.46997C83.7603 5.65549 84.2313 6.79245 85.0695 7.63074C85.9078 8.46902 87.0448 8.94 88.2303 8.94V8.94Z" fill="#CCCCCC"/>
<path d="M109.17 212.22C110.054 212.22 110.919 211.958 111.654 211.467C112.389 210.976 112.962 210.277 113.3 209.461C113.638 208.644 113.727 207.745 113.554 206.878C113.382 206.011 112.956 205.214 112.331 204.589C111.706 203.964 110.909 203.538 110.042 203.366C109.175 203.194 108.277 203.282 107.46 203.62C106.643 203.959 105.945 204.532 105.454 205.267C104.962 206.002 104.7 206.866 104.7 207.75C104.7 208.936 105.171 210.073 106.01 210.911C106.848 211.749 107.985 212.22 109.17 212.22V212.22Z" fill="#CCCCCC"/>
<path d="M109.17 195.28C110.055 195.28 110.919 195.018 111.655 194.526C112.39 194.034 112.963 193.336 113.301 192.518C113.639 191.701 113.727 190.802 113.554 189.934C113.38 189.067 112.954 188.271 112.328 187.646C111.701 187.021 110.904 186.596 110.036 186.425C109.168 186.253 108.269 186.343 107.453 186.683C106.636 187.023 105.939 187.598 105.449 188.334C104.959 189.07 104.698 189.936 104.7 190.82C104.7 191.407 104.816 191.987 105.041 192.529C105.266 193.071 105.595 193.563 106.01 193.977C106.425 194.392 106.918 194.72 107.46 194.943C108.003 195.167 108.584 195.281 109.17 195.28V195.28Z" fill="#CCCCCC"/>
<path d="M109.17 178.34C110.054 178.34 110.919 178.078 111.654 177.587C112.389 177.096 112.962 176.397 113.3 175.581C113.638 174.764 113.727 173.865 113.554 172.998C113.382 172.131 112.956 171.334 112.331 170.709C111.706 170.084 110.909 169.658 110.042 169.486C109.175 169.314 108.277 169.402 107.46 169.74C106.643 170.079 105.945 170.652 105.454 171.387C104.962 172.122 104.7 172.986 104.7 173.87C104.7 175.056 105.171 176.193 106.01 177.031C106.848 177.869 107.985 178.34 109.17 178.34V178.34Z" fill="#CCCCCC"/>
<path d="M109.17 161.4C110.055 161.4 110.919 161.138 111.655 160.646C112.39 160.154 112.963 159.456 113.301 158.638C113.639 157.821 113.727 156.922 113.554 156.054C113.38 155.187 112.954 154.391 112.328 153.766C111.701 153.141 110.904 152.716 110.036 152.545C109.168 152.373 108.269 152.463 107.453 152.803C106.636 153.143 105.939 153.718 105.449 154.454C104.959 155.19 104.698 156.056 104.7 156.94C104.7 157.527 104.816 158.107 105.041 158.649C105.266 159.191 105.595 159.683 106.01 160.097C106.425 160.512 106.918 160.84 107.46 161.063C108.003 161.287 108.584 161.401 109.17 161.4Z" fill="#CCCCCC"/>
<path d="M109.17 144.46C110.054 144.46 110.919 144.198 111.654 143.707C112.389 143.216 112.962 142.517 113.3 141.701C113.638 140.884 113.727 139.985 113.554 139.118C113.382 138.251 112.956 137.454 112.331 136.829C111.706 136.204 110.909 135.778 110.042 135.606C109.175 135.433 108.277 135.522 107.46 135.86C106.643 136.199 105.945 136.772 105.454 137.507C104.962 138.242 104.7 139.106 104.7 139.99C104.7 141.176 105.171 142.313 106.01 143.151C106.848 143.989 107.985 144.46 109.17 144.46V144.46Z" fill="#CCCCCC"/>
<path d="M109.17 127.52C110.055 127.52 110.919 127.258 111.655 126.766C112.39 126.274 112.963 125.576 113.301 124.758C113.639 123.941 113.727 123.042 113.554 122.174C113.38 121.307 112.954 120.511 112.328 119.886C111.701 119.261 110.904 118.836 110.036 118.665C109.168 118.493 108.269 118.583 107.453 118.923C106.636 119.263 105.939 119.838 105.449 120.574C104.959 121.31 104.698 122.176 104.7 123.06C104.7 123.647 104.816 124.227 105.041 124.769C105.266 125.311 105.595 125.803 106.01 126.217C106.425 126.632 106.918 126.96 107.46 127.183C108.003 127.407 108.584 127.521 109.17 127.52V127.52Z" fill="#CCCCCC"/>
<path d="M109.17 110.58C110.054 110.58 110.919 110.318 111.654 109.827C112.389 109.336 112.962 108.637 113.3 107.821C113.638 107.004 113.727 106.105 113.554 105.238C113.382 104.371 112.956 103.574 112.331 102.949C111.706 102.324 110.909 101.898 110.042 101.726C109.175 101.553 108.277 101.642 107.46 101.98C106.643 102.319 105.945 102.892 105.454 103.627C104.962 104.362 104.7 105.226 104.7 106.11C104.7 107.296 105.171 108.433 106.01 109.271C106.848 110.109 107.985 110.58 109.17 110.58V110.58Z" fill="#CCCCCC"/>
<path d="M109.17 93.64C110.054 93.64 110.919 93.3779 111.654 92.8867C112.389 92.3955 112.962 91.6974 113.3 90.8806C113.638 90.0638 113.727 89.1651 113.554 88.298C113.382 87.4309 112.956 86.6344 112.331 86.0092C111.706 85.3841 110.909 84.9584 110.042 84.7859C109.175 84.6134 108.277 84.702 107.46 85.0403C106.643 85.3786 105.945 85.9515 105.454 86.6866C104.962 87.4217 104.7 88.2859 104.7 89.17C104.7 90.3555 105.171 91.4925 106.01 92.3308C106.848 93.1691 107.985 93.64 109.17 93.64V93.64Z" fill="#CCCCCC"/>
<path d="M109.17 76.7001C110.054 76.7001 110.919 76.4379 111.654 75.9467C112.389 75.4556 112.962 74.7575 113.3 73.9407C113.638 73.1239 113.727 72.2251 113.554 71.358C113.382 70.4909 112.956 69.6944 112.331 69.0693C111.706 68.4442 110.909 68.0185 110.042 67.846C109.175 67.6735 108.277 67.762 107.46 68.1003C106.643 68.4387 105.945 69.0116 105.454 69.7467C104.962 70.4818 104.7 71.346 104.7 72.2301C104.7 72.8171 104.816 73.3983 105.041 73.9407C105.265 74.483 105.594 74.9758 106.01 75.3908C106.425 75.8059 106.917 76.1352 107.46 76.3598C108.002 76.5844 108.583 76.7001 109.17 76.7001V76.7001Z" fill="#CCCCCC"/>
<path d="M109.17 59.7601C110.054 59.7601 110.919 59.4979 111.654 59.0067C112.389 58.5155 112.962 57.8174 113.3 57.0006C113.638 56.1839 113.727 55.2851 113.554 54.418C113.382 53.5509 112.956 52.7544 112.331 52.1293C111.706 51.5042 110.909 51.0784 110.042 50.9059C109.175 50.7335 108.277 50.822 107.46 51.1603C106.643 51.4986 105.945 52.0716 105.454 52.8067C104.962 53.5418 104.7 54.406 104.7 55.2901C104.7 56.4756 105.171 57.6125 106.01 58.4508C106.848 59.2891 107.985 59.7601 109.17 59.7601V59.7601Z" fill="#CCCCCC"/>
<path d="M109.17 42.8201C110.054 42.8201 110.919 42.5579 111.654 42.0667C112.389 41.5755 112.962 40.8774 113.3 40.0606C113.638 39.2439 113.727 38.3451 113.554 37.478C113.382 36.6109 112.956 35.8144 112.331 35.1893C111.706 34.5642 110.909 34.1384 110.042 33.9659C109.175 33.7935 108.277 33.882 107.46 34.2203C106.643 34.5586 105.945 35.1316 105.454 35.8667C104.962 36.6018 104.7 37.466 104.7 38.3501C104.7 38.9371 104.816 39.5183 105.041 40.0606C105.265 40.603 105.594 41.0958 106.01 41.5108C106.425 41.9259 106.917 42.2552 107.46 42.4798C108.002 42.7044 108.583 42.8201 109.17 42.8201V42.8201Z" fill="#CCCCCC"/>
<path d="M109.17 25.88C110.054 25.88 110.919 25.6178 111.654 25.1266C112.389 24.6355 112.962 23.9374 113.3 23.1206C113.638 22.3038 113.727 21.4051 113.554 20.538C113.382 19.6709 112.956 18.8743 112.331 18.2492C111.706 17.6241 110.909 17.1984 110.042 17.0259C109.175 16.8534 108.277 16.9419 107.46 17.2803C106.643 17.6186 105.945 18.1915 105.454 18.9266C104.962 19.6617 104.7 20.5259 104.7 21.41C104.7 22.5955 105.171 23.7325 106.01 24.5707C106.848 25.409 107.985 25.88 109.17 25.88V25.88Z" fill="#CCCCCC"/>
<path d="M109.17 8.94C110.054 8.94 110.919 8.67782 111.654 8.18665C112.389 7.69548 112.962 6.99739 113.3 6.1806C113.638 5.36382 113.727 4.46506 113.554 3.59796C113.382 2.73087 112.956 1.93434 112.331 1.3092C111.706 0.684063 110.909 0.258352 110.042 0.0858765C109.175 -0.0865995 108.277 0.00194728 107.46 0.340271C106.643 0.678595 105.945 1.25148 105.454 1.98657C104.962 2.72166 104.7 3.58589 104.7 4.46997C104.7 5.65549 105.171 6.79245 106.01 7.63074C106.848 8.46902 107.985 8.94 109.17 8.94V8.94Z" fill="#CCCCCC"/>
</g>
<defs>
<clipPath id="clip0_7_320">
<rect width="600" height="218.77" fill="white" transform="translate(0 600) rotate(-90)"/>
</clipPath>
</defs>
</svg>
