<svg width="30" height="30" viewBox="0 0 30 30" fill="none" xmlns="http://www.w3.org/2000/svg">
<path d="M5 24.375H6.375L20.2187 10.5312L18.8437 9.15625L5 23V24.375ZM24.1875 9.1875L20.1875 5.1875L21.5 3.875C21.8542 3.52083 22.2917 3.34375 22.8125 3.34375C23.3333 3.34375 23.7708 3.52083 24.125 3.875L25.5 5.25C25.8542 5.60417 26.0313 6.04167 26.0313 6.5625C26.0313 7.08333 25.8542 7.52083 25.5 7.875L24.1875 9.1875ZM22.875 10.5L7.125 26.25H3.125V22.25L18.875 6.5L22.875 10.5ZM19.5312 9.84375L18.8437 9.15625L20.2187 10.5312L19.5312 9.84375Z" fill="white"/>
</svg>
