<svg width="30" height="30" viewBox="0 0 30 30" fill="none" xmlns="http://www.w3.org/2000/svg">
<path d="M24.375 15C24.375 14.7125 24.3625 14.4375 24.3375 14.15L26.6625 12.3875C27.1625 12.0125 27.3 11.3125 26.9875 10.7625L24.65 6.725C24.3375 6.175 23.6625 5.95 23.0875 6.2L20.4 7.3375C19.9375 7.0125 19.45 6.725 18.9375 6.4875L18.575 3.6C18.5 2.975 17.9625 2.5 17.3375 2.5H12.675C12.0375 2.5 11.5 2.975 11.425 3.6L11.0625 6.4875C10.55 6.725 10.0625 7.0125 9.60001 7.3375L6.91251 6.2C6.33751 5.95 5.66251 6.175 5.35001 6.725L3.01251 10.775C2.70001 11.325 2.83751 12.0125 3.33751 12.4L5.66251 14.1625C5.63751 14.4375 5.62501 14.7125 5.62501 15C5.62501 15.2875 5.63751 15.5625 5.66251 15.85L3.33751 17.6125C2.83751 17.9875 2.70001 18.6875 3.01251 19.2375L5.35001 23.275C5.66251 23.825 6.33751 24.05 6.91251 23.8L9.60001 22.6625C10.0625 22.9875 10.55 23.275 11.0625 23.5125L11.425 26.4C11.5 27.025 12.0375 27.5 12.6625 27.5H17.325C17.95 27.5 18.4875 27.025 18.5625 26.4L18.925 23.5125C19.4375 23.275 19.925 22.9875 20.3875 22.6625L23.075 23.8C23.65 24.05 24.325 23.825 24.6375 23.275L26.975 19.2375C27.2875 18.6875 27.15 18 26.65 17.6125L24.325 15.85C24.3625 15.5625 24.375 15.2875 24.375 15ZM15.05 19.375C12.6375 19.375 10.675 17.4125 10.675 15C10.675 12.5875 12.6375 10.625 15.05 10.625C17.4625 10.625 19.425 12.5875 19.425 15C19.425 17.4125 17.4625 19.375 15.05 19.375Z" fill="#333333"/>
</svg>
